<svg width="68" height="39" viewBox="0 0 68 39" fill="none" xmlns="http://www.w3.org/2000/svg">
<path d="M11.8864 13.3636L15.3409 23.1591H15.4773L18.9318 13.3636H20.4091L16.1364 25H14.6818L10.4091 13.3636H11.8864ZM23.7955 25.2045C23.2424 25.2045 22.7405 25.1004 22.2898 24.892C21.839 24.6799 21.4811 24.375 21.2159 23.9773C20.9508 23.5758 20.8182 23.0909 20.8182 22.5227C20.8182 22.0227 20.9167 21.6174 21.1136 21.3068C21.3106 20.9924 21.5739 20.7462 21.9034 20.5682C22.233 20.3902 22.5966 20.2576 22.9943 20.1705C23.3958 20.0795 23.7992 20.0076 24.2045 19.9545C24.7348 19.8864 25.1648 19.8352 25.4943 19.8011C25.8277 19.7633 26.0701 19.7008 26.2216 19.6136C26.3769 19.5265 26.4545 19.375 26.4545 19.1591V19.1136C26.4545 18.553 26.3011 18.1174 25.9943 17.8068C25.6913 17.4962 25.2311 17.3409 24.6136 17.3409C23.9735 17.3409 23.4716 17.4811 23.108 17.7614C22.7443 18.0417 22.4886 18.3409 22.3409 18.6591L21.0682 18.2045C21.2955 17.6742 21.5985 17.2614 21.9773 16.9659C22.3598 16.6667 22.7765 16.4583 23.2273 16.3409C23.6818 16.2197 24.1288 16.1591 24.5682 16.1591C24.8485 16.1591 25.1705 16.1932 25.5341 16.2614C25.9015 16.3258 26.2557 16.4602 26.5966 16.6648C26.9413 16.8693 27.2273 17.178 27.4545 17.5909C27.6818 18.0038 27.7955 18.5568 27.7955 19.25V25H26.4545V23.8182H26.3864C26.2955 24.0076 26.1439 24.2102 25.9318 24.4261C25.7197 24.642 25.4375 24.8258 25.0852 24.9773C24.733 25.1288 24.303 25.2045 23.7955 25.2045ZM24 24C24.5303 24 24.9773 23.8958 25.3409 23.6875C25.7083 23.4792 25.9848 23.2102 26.1705 22.8807C26.3598 22.5511 26.4545 22.2045 26.4545 21.8409V20.6136C26.3977 20.6818 26.2727 20.7443 26.0795 20.8011C25.8902 20.8542 25.6705 20.9015 25.4205 20.9432C25.1742 20.9811 24.9337 21.0152 24.6989 21.0455C24.4678 21.072 24.2803 21.0947 24.1364 21.1136C23.7879 21.1591 23.4621 21.233 23.1591 21.3352C22.8598 21.4337 22.6174 21.5833 22.4318 21.7841C22.25 21.9811 22.1591 22.25 22.1591 22.5909C22.1591 23.0568 22.3314 23.4091 22.6761 23.6477C23.0246 23.8826 23.4659 24 24 24ZM31.5838 19.75V25H30.2429V16.2727H31.5384V17.6364H31.652C31.8565 17.1932 32.1671 16.8371 32.5838 16.5682C33.0005 16.2955 33.5384 16.1591 34.1974 16.1591C34.7884 16.1591 35.3054 16.2803 35.7486 16.5227C36.1918 16.7614 36.5365 17.125 36.7827 17.6136C37.0289 18.0985 37.152 18.7121 37.152 19.4545V25H35.8111V19.5455C35.8111 18.8598 35.633 18.3258 35.277 17.9432C34.9209 17.5568 34.4323 17.3636 33.8111 17.3636C33.383 17.3636 33.0005 17.4564 32.6634 17.642C32.33 17.8277 32.0668 18.0985 31.8736 18.4545C31.6804 18.8106 31.5838 19.2424 31.5838 19.75ZM39.6023 16.2727H40.9432V25.6364C40.9432 26.1742 40.8504 26.6402 40.6648 27.0341C40.483 27.428 40.2064 27.733 39.8352 27.9489C39.4678 28.1648 39.0038 28.2727 38.4432 28.2727C38.3977 28.2727 38.3523 28.2727 38.3068 28.2727C38.2614 28.2727 38.2159 28.2727 38.1705 28.2727V27.0227C38.2159 27.0227 38.2576 27.0227 38.2955 27.0227C38.3333 27.0227 38.375 27.0227 38.4205 27.0227C38.8295 27.0227 39.1288 26.9015 39.3182 26.6591C39.5076 26.4205 39.6023 26.0795 39.6023 25.6364V16.2727ZM40.2614 14.8182C40 14.8182 39.7746 14.7292 39.5852 14.5511C39.3996 14.3731 39.3068 14.1591 39.3068 13.9091C39.3068 13.6591 39.3996 13.4451 39.5852 13.267C39.7746 13.089 40 13 40.2614 13C40.5227 13 40.7462 13.089 40.9318 13.267C41.1212 13.4451 41.2159 13.6591 41.2159 13.9091C41.2159 14.1591 41.1212 14.3731 40.9318 14.5511C40.7462 14.7292 40.5227 14.8182 40.2614 14.8182ZM43.3991 25V16.2727H44.6946V17.5909H44.7855C44.9446 17.1591 45.2325 16.8087 45.6491 16.5398C46.0658 16.2708 46.5355 16.1364 47.0582 16.1364C47.1567 16.1364 47.2798 16.1383 47.4276 16.142C47.5753 16.1458 47.687 16.1515 47.7628 16.1591V17.5227C47.7173 17.5114 47.6132 17.4943 47.4503 17.4716C47.2912 17.4451 47.1226 17.4318 46.9446 17.4318C46.5204 17.4318 46.1416 17.5208 45.8082 17.6989C45.4787 17.8731 45.2173 18.1155 45.0241 18.4261C44.8348 18.733 44.7401 19.0833 44.7401 19.4773V25H43.3991ZM52.7457 25.1818C51.9048 25.1818 51.1795 24.9962 50.5696 24.625C49.9635 24.25 49.4957 23.7273 49.1662 23.0568C48.8404 22.3826 48.6776 21.5985 48.6776 20.7045C48.6776 19.8106 48.8404 19.0227 49.1662 18.3409C49.4957 17.6553 49.9541 17.1212 50.5412 16.7386C51.1321 16.3523 51.8215 16.1591 52.6094 16.1591C53.0639 16.1591 53.5128 16.2348 53.956 16.3864C54.3991 16.5379 54.8026 16.7841 55.1662 17.125C55.5298 17.4621 55.8196 17.9091 56.0355 18.4659C56.2514 19.0227 56.3594 19.7083 56.3594 20.5227V21.0909H49.6321V19.9318H54.9957C54.9957 19.4394 54.8973 19 54.7003 18.6136C54.5071 18.2273 54.2306 17.9223 53.8707 17.6989C53.5147 17.4754 53.0942 17.3636 52.6094 17.3636C52.0753 17.3636 51.6132 17.4962 51.223 17.7614C50.8366 18.0227 50.5393 18.3636 50.331 18.7841C50.1226 19.2045 50.0185 19.6553 50.0185 20.1364V20.9091C50.0185 21.5682 50.1321 22.1269 50.3594 22.5852C50.5904 23.0398 50.9105 23.3864 51.3196 23.625C51.7287 23.8598 52.2041 23.9773 52.7457 23.9773C53.098 23.9773 53.4162 23.928 53.7003 23.8295C53.9882 23.7273 54.2363 23.5758 54.4446 23.375C54.6529 23.1705 54.8139 22.9167 54.9276 22.6136L56.223 22.9773C56.0866 23.4167 55.8575 23.803 55.5355 24.1364C55.2135 24.4659 54.8158 24.7235 54.3423 24.9091C53.8688 25.0909 53.3366 25.1818 52.7457 25.1818Z" fill="#141212"/>
</svg>
